<?xml version="1.0" encoding="UTF-8"?>
<svg id="Ebene_1" data-name="Ebene 1" xmlns="http://www.w3.org/2000/svg" viewBox="0 0 661.72 240.94">
  <g>
    <path d="M27.83,61.69H7.32v-9.91h20.5V19.55h10.59v32.22h31.55v9.91h-31.55v111.31h-10.59V61.69Z" fill="#181a4d"/>
    <path d="M81.68,10.32h10.59v41.46c0,10.59,0,14.65-.45,24.33h.45c7.44-16.67,21.41-27.04,41.68-27.04,30.87,0,46.42,21.63,46.42,48.9v75.03h-10.37v-73.23c0-24.11-13.29-41.23-38.08-41.23s-39.66,20.05-39.66,43.26v71.2h-10.59V10.32Z" fill="#181a4d"/>
    <path d="M196.36,112.16c0-36.28,23.43-63.09,58.58-63.09s54.53,24.79,54.53,57.91c0,1.8,0,3.83-.45,5.63h-102.3c.23,30.42,18.93,53.4,48.45,53.4,18.48,0,33.12-8.34,41.91-24.79l9.01,4.73c-10.82,19.83-28.84,29.97-51.15,29.97-35.38,0-58.58-27.26-58.58-63.77ZM299.11,103.38c-1.35-25.46-17.12-44.61-44.16-44.61s-44.39,18.7-47.77,44.61h91.93Z" fill="#181a4d"/>
  </g>
  <path d="M589.86,50.05c-15.48,0-30.25,6.91-39.3,19.53h-.48c.24-7.62.24-11.2.24-19.53V9.32h-34.3v92.17h0v74.79c0,15.96-8.57,27.15-24.06,27.15s-24.06-11.19-24.06-27.15v-74.79h-.1v-5.09c0-27.39-15.48-48.83-45.49-48.83-14.05,0-29.3,5.72-37.87,20.96h-.24c.24-5.95.24-11.43.24-18.1V6.6h-34.3v172.92h34.3v-72.41c0-16.2,9.53-28.34,25.01-28.34s24.06,11.2,24.06,27.39v73.36h.15c.49,34.34,23.2,55.11,58.31,55.11s56.26-19.6,57.95-52.39c0,0,.4-11.16.17-16.61v-.06h.47c8.81,13.1,21.91,19.53,39.54,19.53,32.63,0,58.83-28.82,58.83-67.64s-25.01-67.4-59.07-67.4ZM582.24,154.13c-17.42,0-29.7-12.15-32.15-29.98v-13.45c2.45-17.92,14.73-29.69,32.15-29.69,19.29,0,32.39,15.72,32.39,36.44s-13.1,36.68-32.39,36.68Z" fill="#181a4d"/>
</svg>